<?xml version="1.0" encoding="UTF-8" standalone="no"?>
<svg width="203px" height="19px" viewBox="21 161 247 23" version="1.1" xmlns="http://www.w3.org/2000/svg" xmlns:xlink="http://www.w3.org/1999/xlink">
    <title>beta_interactive</title>
    <defs></defs>
    <path d="M35.736,178.56 C35.4586653,180.736011 34.690673,182.271996 33.432,183.168 C32.6426627,183.722669 31.7466717,184 30.744,184 L21.976,184 L21.976,161.184 L26.456,161.184 L26.456,167.776 L30.072,167.776 C31.1813389,167.776 32.2373283,168.095997 33.24,168.736 C34.6693405,169.674671 35.5119987,171.082657 35.768,172.96 C36.0026678,174.709342 35.9920013,176.57599 35.736,178.56 L35.736,178.56 Z M28.696,171.936 L26.488,171.936 L26.488,179.968 L28.664,179.968 C30.3706752,179.968 31.2879994,179.264007 31.416,177.856 C31.5440006,176.319992 31.5546672,175.072005 31.448,174.112 C31.2773325,172.661326 30.3600083,171.936 28.696,171.936 L28.696,171.936 Z M43.8,177.6 C44.141335,179.02934 45.0586592,179.744 46.552,179.744 L51.96,179.744 L51.96,184 L46.296,184 C43.6719869,184 41.8053389,183.242674 40.696,181.728 C39.7359952,180.42666 39.256,178.41068 39.256,175.68 C39.256,173.01332 39.7573283,171.02934 40.76,169.728 C41.8693389,168.277326 43.7146538,167.552 46.296,167.552 C49.2400147,167.552 51.2133283,168.437324 52.216,170.208 C52.941337,171.466673 53.304,173.674651 53.304,176.832 L53.304,177.6 L43.8,177.6 Z M46.264,171.488 C44.6213251,171.488 43.7360006,172.373324 43.608,174.144 L49.048,174.144 C48.8346656,172.373324 47.9066749,171.488 46.264,171.488 L46.264,171.488 Z M62.296,171.968 L62.296,184 L57.784,184 L57.784,161.184 L62.296,161.184 L62.296,167.776 L67.736,167.776 L67.736,171.968 L62.296,171.968 Z M75.768,184 C72.226649,184 70.456,182.165352 70.456,178.496 C70.456,176.725324 70.9679949,175.434671 71.992,174.624 C72.8026707,173.983997 74.007992,173.600001 75.608,173.472 C75.9066682,173.450667 77.3466538,173.44 79.928,173.44 C79.9066666,173.034665 79.7786678,172.666668 79.544,172.336 C79.3093322,172.005332 79.0000019,171.84 78.616,171.84 L71.992,171.84 L71.992,167.744 L78.712,167.744 C82.5733526,167.744 84.504,169.75998 84.504,173.792 L84.504,184 L75.768,184 Z M80.024,177.28 L76.344,177.28 C75.277328,177.28 74.744,177.738662 74.744,178.656 C74.744,179.509338 75.2559949,179.936 76.28,179.936 L80.024,179.936 L80.024,177.28 Z M88.728,184 L88.728,179.936 L94.712,179.936 L94.712,184 L88.728,184 Z M98.584,165.248 L98.584,161.184 L103.064,161.184 L103.064,165.248 L98.584,165.248 Z M98.584,184 L98.584,168.256 L103.064,168.256 L103.064,184 L98.584,184 Z M117.464,184 L117.464,173.76 C117.464,172.586661 116.525343,172 114.648,172 L112.536,172 L112.536,184 L108.024,184 L108.024,167.744 L114.648,167.744 C119.533358,167.744 121.976,169.749313 121.976,173.76 L121.976,184 L117.464,184 Z M131.96,171.968 L131.96,184 L127.448,184 L127.448,161.184 L131.96,161.184 L131.96,167.776 L137.4,167.776 L137.4,171.968 L131.96,171.968 Z M144.664,177.6 C145.005335,179.02934 145.922659,179.744 147.416,179.744 L152.824,179.744 L152.824,184 L147.16,184 C144.535987,184 142.669339,183.242674 141.56,181.728 C140.599995,180.42666 140.12,178.41068 140.12,175.68 C140.12,173.01332 140.621328,171.02934 141.624,169.728 C142.733339,168.277326 144.578654,167.552 147.16,167.552 C150.104015,167.552 152.077328,168.437324 153.08,170.208 C153.805337,171.466673 154.168,173.674651 154.168,176.832 L154.168,177.6 L144.664,177.6 Z M147.128,171.488 C145.485325,171.488 144.600001,172.373324 144.472,174.144 L149.912,174.144 C149.698666,172.373324 148.770675,171.488 147.128,171.488 L147.128,171.488 Z M167.832,173.696 C167.191997,172.565328 166.306672,172 165.176,172 L162.616,172 L162.616,184 L158.168,184 L158.168,167.744 L165.304,167.744 C167.778679,167.744 169.581328,168.76799 170.712,170.816 L167.832,173.696 Z M178.84,184 C175.298649,184 173.528,182.165352 173.528,178.496 C173.528,176.725324 174.039995,175.434671 175.064,174.624 C175.874671,173.983997 177.079992,173.600001 178.68,173.472 C178.978668,173.450667 180.418654,173.44 183,173.44 C182.978667,173.034665 182.850668,172.666668 182.616,172.336 C182.381332,172.005332 182.072002,171.84 181.688,171.84 L175.064,171.84 L175.064,167.744 L181.784,167.744 C185.645353,167.744 187.576,169.75998 187.576,173.792 L187.576,184 L178.84,184 Z M183.096,177.28 L179.416,177.28 C178.349328,177.28 177.816,177.738662 177.816,178.656 C177.816,179.509338 178.327995,179.936 179.352,179.936 L183.096,179.936 L183.096,177.28 Z M198.936,184 C196.525321,184 194.722673,183.338673 193.528,182.016 C192.887997,181.290663 192.440001,180.490671 192.184,179.616 C191.927999,178.741329 191.8,177.493341 191.8,175.872 C191.8,174.250659 191.927999,173.002671 192.184,172.128 C192.440001,171.253329 192.887997,170.453337 193.528,169.728 C194.722673,168.405327 196.525321,167.744 198.936,167.744 L204.472,167.744 L204.472,172 L198.936,172 C197.954662,172 197.261335,172.298664 196.856,172.896 C196.557332,173.322669 196.408,174.314659 196.408,175.872 C196.408,177.344007 196.525332,178.293331 196.76,178.72 C197.144002,179.40267 197.869328,179.744 198.936,179.744 L204.472,179.744 L204.472,184 L198.936,184 Z M213.464,171.968 L213.464,184 L208.952,184 L208.952,161.184 L213.464,161.184 L213.464,167.776 L218.904,167.776 L218.904,171.968 L213.464,171.968 Z M222.392,165.248 L222.392,161.184 L226.872,161.184 L226.872,165.248 L222.392,165.248 Z M222.392,184 L222.392,168.256 L226.872,168.256 L226.872,184 L222.392,184 Z M241.912,184 L237.336,184 L230.552,167.744 L235.64,167.744 L239.288,177.92 L239.96,177.92 L243.576,167.744 L248.664,167.744 L241.912,184 Z M256.152,177.6 C256.493335,179.02934 257.410659,179.744 258.904,179.744 L264.312,179.744 L264.312,184 L258.648,184 C256.023987,184 254.157339,183.242674 253.048,181.728 C252.087995,180.42666 251.608,178.41068 251.608,175.68 C251.608,173.01332 252.109328,171.02934 253.112,169.728 C254.221339,168.277326 256.066654,167.552 258.648,167.552 C261.592015,167.552 263.565328,168.437324 264.568,170.208 C265.293337,171.466673 265.656,173.674651 265.656,176.832 L265.656,177.6 L256.152,177.6 Z M258.616,171.488 C256.973325,171.488 256.088001,172.373324 255.96,174.144 L261.4,174.144 C261.186666,172.373324 260.258675,171.488 258.616,171.488 L258.616,171.488 Z" id="beta_interactive" stroke="none" fill="#FFFFFF" fill-rule="evenodd"></path>
</svg>
